<?xml version="1.0" standalone="no"?>
<!DOCTYPE svg PUBLIC "-//W3C//DTD SVG 20010904//EN"
 "http://www.w3.org/TR/2001/REC-SVG-20010904/DTD/svg10.dtd">
<svg version="1.0" xmlns="http://www.w3.org/2000/svg"
 width="1280.000000pt" height="1189.000000pt" viewBox="0 0 1280.000000 1189.000000"
 preserveAspectRatio="xMidYMid meet">
<metadata>
Created by potrace 1.16, written by Peter Selinger 2001-2019
</metadata>
<g transform="translate(0.000000,1189.000000) scale(0.100000,-0.100000)"
fill="#000000" stroke="none">
<path d="M6373 11795 c-143 -26 -290 -90 -389 -171 -72 -59 -5312 -5081 -5377
-5154 -67 -75 -120 -169 -159 -280 -31 -91 -32 -102 -32 -245 0 -143 1 -154
32 -245 39 -111 92 -205 159 -280 67 -75 5320 -5109 5385 -5161 70 -55 213
-124 313 -149 409 -105 838 91 1009 462 93 201 99 427 17 633 -47 116 -105
195 -248 337 -70 69 -1130 1086 -2355 2260 -1225 1173 -2228 2136 -2230 2140
-2 4 1000 968 2227 2143 1227 1175 2288 2194 2358 2263 174 172 235 267 283
442 25 90 25 300 0 390 -118 428 -549 696 -993 615z"/>
<path d="M11703 11795 c-143 -26 -290 -90 -389 -171 -72 -59 -5312 -5081
-5376 -5153 -262 -293 -262 -759 0 -1052 66 -74 5319 -5108 5384 -5160 70 -55
213 -124 313 -149 409 -105 838 91 1009 462 93 201 99 427 17 633 -47 116
-105 195 -248 337 -70 69 -1130 1086 -2355 2260 -1225 1173 -2228 2136 -2230
2140 -2 4 1001 968 2227 2143 1227 1175 2288 2194 2358 2263 174 172 235 267
283 442 25 90 25 300 0 390 -118 428 -549 696 -993 615z"/>
</g>
</svg>
