<?xml version="1.0" standalone="no"?>
<!DOCTYPE svg PUBLIC "-//W3C//DTD SVG 20010904//EN"
 "http://www.w3.org/TR/2001/REC-SVG-20010904/DTD/svg10.dtd">
<svg version="1.0" xmlns="http://www.w3.org/2000/svg"
 width="1280.000000pt" height="1849.000000pt" viewBox="0 0 1280.000000 1849.000000"
 preserveAspectRatio="xMidYMid meet">
<metadata>
Created by potrace 1.16, written by Peter Selinger 2001-2019
</metadata>
<g transform="translate(0.000000,1849.000000) scale(0.100000,-0.100000)"
fill="#000000" stroke="none">
<path d="M10306 18345 c-246 -40 -482 -144 -656 -288 -100 -83 -8348 -7921
-8408 -7990 -143 -165 -229 -332 -283 -547 -20 -82 -23 -120 -23 -275 0 -162
2 -191 26 -286 53 -209 153 -396 293 -547 62 -66 8028 -7642 8340 -7931 168
-155 395 -270 638 -323 135 -29 426 -32 557 -6 276 57 514 182 706 373 245
243 374 549 374 885 0 287 -90 538 -284 793 -11 15 -1680 1605 -3708 3533
-2029 1928 -3688 3507 -3688 3509 0 2 1659 1581 3688 3509 2851 2710 3700
3522 3745 3583 468 637 248 1519 -468 1873 -216 107 -350 139 -595 145 -114 3
-192 0 -254 -10z"/>
</g>
</svg>
